<svg width="100" height="100" viewBox="0 0 24 24" fill="none" xmlns="http://www.w3.org/2000/svg">
  <rect width="24" height="24" rx="4" fill="#F0F0F0"/>
  <path fill-rule="evenodd" clip-rule="evenodd" d="M8 7C8 6.44772 8.44772 6 9 6H15C15.5523 6 16 6.44772 16 7V10C16 10.5523 15.5523 11 15 11H9C8.44772 11 8 10.5523 8 10V7ZM9 7V10H15V7H9ZM8 13C8 12.4477 8.44772 12 9 12H11C11.5523 12 12 12.4477 12 13V16C12 16.5523 11.5523 17 11 17H9C8.44772 17 8 16.5523 8 16V13ZM9 13V16H11V13H9ZM14 12C13.4477 12 13 12.4477 13 13V16C13 16.5523 13.4477 17 14 17H15C15.5523 17 16 16.5523 16 16V13C16 12.4477 15.5523 12 15 12H14ZM14 13H15V16H14V13Z" fill="#01C909"/>
</svg>
