<svg width="98" height="31" viewBox="0 0 98 31" fill="none" xmlns="http://www.w3.org/2000/svg">
<path d="M2.55682 24V0.727272H11.0795C12.7311 0.727272 14.0985 0.999999 15.1818 1.54545C16.2652 2.08333 17.0758 2.81439 17.6136 3.73864C18.1515 4.6553 18.4205 5.68939 18.4205 6.84091C18.4205 7.81061 18.2424 8.62879 17.8864 9.29545C17.5303 9.95454 17.053 10.4848 16.4545 10.8864C15.8636 11.2803 15.2121 11.5682 14.5 11.75V11.9773C15.2727 12.0152 16.0265 12.2652 16.7614 12.7273C17.5038 13.1818 18.1174 13.8295 18.6023 14.6705C19.0871 15.5114 19.3295 16.5341 19.3295 17.7386C19.3295 18.928 19.0492 19.9962 18.4886 20.9432C17.9356 21.8826 17.0795 22.6288 15.9205 23.1818C14.7614 23.7273 13.2803 24 11.4773 24H2.55682ZM6.06818 20.9886H11.1364C12.8182 20.9886 14.0227 20.6629 14.75 20.0114C15.4773 19.3598 15.8409 18.5455 15.8409 17.5682C15.8409 16.8333 15.6553 16.1591 15.2841 15.5455C14.9129 14.9318 14.3826 14.4432 13.6932 14.0795C13.0114 13.7159 12.2008 13.5341 11.2614 13.5341H6.06818V20.9886ZM6.06818 10.7955H10.7727C11.5606 10.7955 12.2689 10.6439 12.8977 10.3409C13.5341 10.0379 14.0379 9.61364 14.4091 9.06818C14.7879 8.51515 14.9773 7.86364 14.9773 7.11364C14.9773 6.15151 14.6402 5.3447 13.9659 4.69318C13.2917 4.04167 12.2576 3.71591 10.8636 3.71591H6.06818V10.7955ZM30.2539 24.3523C28.6175 24.3523 27.1895 23.9773 25.9698 23.2273C24.7501 22.4773 23.8031 21.428 23.1289 20.0795C22.4546 18.7311 22.1175 17.1553 22.1175 15.3523C22.1175 13.5417 22.4546 11.9583 23.1289 10.6023C23.8031 9.24621 24.7501 8.19318 25.9698 7.44318C27.1895 6.69318 28.6175 6.31818 30.2539 6.31818C31.8902 6.31818 33.3183 6.69318 34.538 7.44318C35.7577 8.19318 36.7046 9.24621 37.3789 10.6023C38.0531 11.9583 38.3902 13.5417 38.3902 15.3523C38.3902 17.1553 38.0531 18.7311 37.3789 20.0795C36.7046 21.428 35.7577 22.4773 34.538 23.2273C33.3183 23.9773 31.8902 24.3523 30.2539 24.3523ZM30.2652 21.5C31.3258 21.5 32.2046 21.2197 32.9016 20.6591C33.5986 20.0985 34.1137 19.3523 34.447 18.4205C34.788 17.4886 34.9584 16.4621 34.9584 15.3409C34.9584 14.2273 34.788 13.2045 34.447 12.2727C34.1137 11.3333 33.5986 10.5795 32.9016 10.0114C32.2046 9.44318 31.3258 9.15909 30.2652 9.15909C29.197 9.15909 28.3107 9.44318 27.6061 10.0114C26.9092 10.5795 26.3902 11.3333 26.0493 12.2727C25.716 13.2045 25.5493 14.2273 25.5493 15.3409C25.5493 16.4621 25.716 17.4886 26.0493 18.4205C26.3902 19.3523 26.9092 20.0985 27.6061 20.6591C28.3107 21.2197 29.197 21.5 30.2652 21.5ZM45.2606 13.6364V24H41.8628V6.54545H45.1242V9.38636H45.3401C45.7416 8.46212 46.3704 7.7197 47.2265 7.15909C48.0901 6.59848 49.1772 6.31818 50.4878 6.31818C51.6772 6.31818 52.7189 6.56818 53.6128 7.06818C54.5068 7.56061 55.2 8.29545 55.6924 9.27273C56.1848 10.25 56.431 11.4583 56.431 12.8977V24H53.0333V13.3068C53.0333 12.0417 52.7038 11.053 52.0447 10.3409C51.3856 9.62121 50.4803 9.26136 49.3288 9.26136C48.5409 9.26136 47.8401 9.43182 47.2265 9.77273C46.6204 10.1136 46.1394 10.6136 45.7833 11.2727C45.4348 11.9242 45.2606 12.7121 45.2606 13.6364ZM67.986 30.9091C66.5997 30.9091 65.4065 30.7273 64.4065 30.3636C63.4141 30 62.6034 29.5189 61.9747 28.9205C61.3459 28.322 60.8762 27.6667 60.5656 26.9545L63.486 25.75C63.6906 26.0833 63.9633 26.4356 64.3042 26.8068C64.6527 27.1856 65.1224 27.5076 65.7133 27.7727C66.3118 28.0379 67.0807 28.1705 68.0201 28.1705C69.308 28.1705 70.3724 27.8561 71.2133 27.2273C72.0542 26.6061 72.4747 25.6136 72.4747 24.25V20.8182H72.2588C72.0542 21.1894 71.7588 21.6023 71.3724 22.0568C70.9936 22.5114 70.4709 22.9053 69.8042 23.2386C69.1375 23.572 68.2701 23.7386 67.2019 23.7386C65.8231 23.7386 64.5807 23.4167 63.4747 22.7727C62.3762 22.1212 61.505 21.1629 60.861 19.8977C60.2247 18.625 59.9065 17.0606 59.9065 15.2045C59.9065 13.3485 60.2209 11.7576 60.8497 10.4318C61.486 9.10606 62.3572 8.09091 63.4633 7.38636C64.5694 6.67424 65.8231 6.31818 67.2247 6.31818C68.308 6.31818 69.183 6.5 69.8497 6.86364C70.5163 7.2197 71.0353 7.63636 71.4065 8.11364C71.7853 8.59091 72.0769 9.01136 72.2815 9.375H72.5315V6.54545H75.861V24.3864C75.861 25.8864 75.5125 27.1174 74.8156 28.0795C74.1186 29.0417 73.1754 29.7538 71.986 30.2159C70.8042 30.678 69.4709 30.9091 67.986 30.9091ZM67.9519 20.9205C68.9292 20.9205 69.755 20.6932 70.4292 20.2386C71.111 19.7765 71.6262 19.1174 71.9747 18.2614C72.3307 17.3977 72.5088 16.3636 72.5088 15.1591C72.5088 13.9848 72.3345 12.9508 71.986 12.0568C71.6375 11.1629 71.1262 10.4659 70.4519 9.96591C69.7777 9.45833 68.9444 9.20455 67.9519 9.20455C66.9292 9.20455 66.0769 9.4697 65.3951 10C64.7133 10.5227 64.1981 11.2348 63.8497 12.1364C63.5088 13.0379 63.3383 14.0455 63.3383 15.1591C63.3383 16.303 63.5125 17.3068 63.861 18.1705C64.2095 19.0341 64.7247 19.7083 65.4065 20.1932C66.0959 20.678 66.9444 20.9205 67.9519 20.9205ZM85.1774 24.3864C84.0713 24.3864 83.0713 24.1818 82.1774 23.7727C81.2834 23.3561 80.5751 22.7538 80.0524 21.9659C79.5372 21.178 79.2797 20.2121 79.2797 19.0682C79.2797 18.0833 79.4691 17.2727 79.8478 16.6364C80.2266 16 80.738 15.4962 81.3819 15.125C82.0259 14.7538 82.7456 14.4735 83.541 14.2841C84.3365 14.0947 85.1471 13.9508 85.9728 13.8523C87.0183 13.7311 87.8668 13.6326 88.5183 13.5568C89.1698 13.4735 89.6433 13.3409 89.9388 13.1591C90.2342 12.9773 90.3819 12.6818 90.3819 12.2727V12.1932C90.3819 11.2008 90.1016 10.4318 89.541 9.88636C88.988 9.34091 88.1622 9.06818 87.0638 9.06818C85.9198 9.06818 85.0183 9.32197 84.3592 9.82955C83.7077 10.3295 83.2569 10.8864 83.0069 11.5L79.8138 10.7727C80.1925 9.71212 80.7456 8.85606 81.4728 8.20455C82.2077 7.54545 83.0524 7.06818 84.0069 6.77273C84.9615 6.4697 85.9653 6.31818 87.0183 6.31818C87.7153 6.31818 88.4539 6.40152 89.2342 6.56818C90.0221 6.72727 90.7569 7.02273 91.4388 7.45454C92.1281 7.88636 92.6925 8.50379 93.1319 9.30682C93.5713 10.1023 93.791 11.1364 93.791 12.4091V24H90.4728V21.6136H90.3365C90.1168 22.053 89.7872 22.4848 89.3478 22.9091C88.9084 23.3333 88.3441 23.6856 87.6547 23.9659C86.9653 24.2462 86.1395 24.3864 85.1774 24.3864ZM85.916 21.6591C86.8554 21.6591 87.6584 21.4735 88.3251 21.1023C88.9994 20.7311 89.5107 20.2462 89.8592 19.6477C90.2153 19.0417 90.3933 18.3939 90.3933 17.7045V15.4545C90.2721 15.5758 90.0372 15.6894 89.6888 15.7955C89.3478 15.8939 88.9577 15.9811 88.5183 16.0568C88.0789 16.125 87.6509 16.1894 87.2342 16.25C86.8175 16.303 86.4691 16.3485 86.1888 16.3864C85.5297 16.4697 84.9274 16.6098 84.3819 16.8068C83.8441 17.0038 83.4122 17.2879 83.0865 17.6591C82.7683 18.0227 82.6092 18.5076 82.6092 19.1136C82.6092 19.9545 82.9198 20.5909 83.541 21.0227C84.1622 21.447 84.9539 21.6591 85.916 21.6591Z" fill="url(#paint0_linear_615_1666)"/>
<defs>
<linearGradient id="paint0_linear_615_1666" x1="0" y1="12.5" x2="98" y2="12.5" gradientUnits="userSpaceOnUse">
<stop/>
<stop offset="0.464036" stop-color="#BC0000"/>
<stop offset="1" stop-color="#01C909"/>
</linearGradient>
</defs>
</svg>
