<svg width="141" height="36" viewBox="0 0 141 36" fill="none" xmlns="http://www.w3.org/2000/svg">
<path d="M45.5568 29V5.72727H54.0795C55.7311 5.72727 57.0985 6 58.1818 6.54545C59.2652 7.08333 60.0758 7.81439 60.6136 8.73864C61.1515 9.6553 61.4205 10.6894 61.4205 11.8409C61.4205 12.8106 61.2424 13.6288 60.8864 14.2955C60.5303 14.9545 60.053 15.4848 59.4545 15.8864C58.8636 16.2803 58.2121 16.5682 57.5 16.75V16.9773C58.2727 17.0152 59.0265 17.2652 59.7614 17.7273C60.5038 18.1818 61.1174 18.8295 61.6023 19.6705C62.0871 20.5114 62.3295 21.5341 62.3295 22.7386C62.3295 23.928 62.0492 24.9962 61.4886 25.9432C60.9356 26.8826 60.0795 27.6288 58.9205 28.1818C57.7614 28.7273 56.2803 29 54.4773 29H45.5568ZM49.0682 25.9886H54.1364C55.8182 25.9886 57.0227 25.6629 57.75 25.0114C58.4773 24.3598 58.8409 23.5455 58.8409 22.5682C58.8409 21.8333 58.6553 21.1591 58.2841 20.5455C57.9129 19.9318 57.3826 19.4432 56.6932 19.0795C56.0114 18.7159 55.2008 18.5341 54.2614 18.5341H49.0682V25.9886ZM49.0682 15.7955H53.7727C54.5606 15.7955 55.2689 15.6439 55.8977 15.3409C56.5341 15.0379 57.0379 14.6136 57.4091 14.0682C57.7879 13.5152 57.9773 12.8636 57.9773 12.1136C57.9773 11.1515 57.6402 10.3447 56.9659 9.69318C56.2917 9.04167 55.2576 8.71591 53.8636 8.71591H49.0682V15.7955ZM73.2539 29.3523C71.6175 29.3523 70.1895 28.9773 68.9698 28.2273C67.7501 27.4773 66.8031 26.428 66.1289 25.0795C65.4546 23.7311 65.1175 22.1553 65.1175 20.3523C65.1175 18.5417 65.4546 16.9583 66.1289 15.6023C66.8031 14.2462 67.7501 13.1932 68.9698 12.4432C70.1895 11.6932 71.6175 11.3182 73.2539 11.3182C74.8902 11.3182 76.3183 11.6932 77.538 12.4432C78.7577 13.1932 79.7046 14.2462 80.3789 15.6023C81.0531 16.9583 81.3902 18.5417 81.3902 20.3523C81.3902 22.1553 81.0531 23.7311 80.3789 25.0795C79.7046 26.428 78.7577 27.4773 77.538 28.2273C76.3183 28.9773 74.8902 29.3523 73.2539 29.3523ZM73.2652 26.5C74.3258 26.5 75.2046 26.2197 75.9016 25.6591C76.5986 25.0985 77.1137 24.3523 77.447 23.4205C77.788 22.4886 77.9584 21.4621 77.9584 20.3409C77.9584 19.2273 77.788 18.2045 77.447 17.2727C77.1137 16.3333 76.5986 15.5795 75.9016 15.0114C75.2046 14.4432 74.3258 14.1591 73.2652 14.1591C72.197 14.1591 71.3107 14.4432 70.6061 15.0114C69.9092 15.5795 69.3902 16.3333 69.0493 17.2727C68.716 18.2045 68.5493 19.2273 68.5493 20.3409C68.5493 21.4621 68.716 22.4886 69.0493 23.4205C69.3902 24.3523 69.9092 25.0985 70.6061 25.6591C71.3107 26.2197 72.197 26.5 73.2652 26.5ZM88.2606 18.6364V29H84.8628V11.5455H88.1242V14.3864H88.3401C88.7416 13.4621 89.3704 12.7197 90.2265 12.1591C91.0901 11.5985 92.1772 11.3182 93.4878 11.3182C94.6772 11.3182 95.7189 11.5682 96.6128 12.0682C97.5068 12.5606 98.2 13.2955 98.6924 14.2727C99.1848 15.25 99.431 16.4583 99.431 17.8977V29H96.0333V18.3068C96.0333 17.0417 95.7038 16.053 95.0447 15.3409C94.3856 14.6212 93.4803 14.2614 92.3288 14.2614C91.5409 14.2614 90.8401 14.4318 90.2265 14.7727C89.6204 15.1136 89.1394 15.6136 88.7833 16.2727C88.4348 16.9242 88.2606 17.7121 88.2606 18.6364ZM110.986 35.9091C109.6 35.9091 108.406 35.7273 107.406 35.3636C106.414 35 105.603 34.5189 104.975 33.9205C104.346 33.322 103.876 32.6667 103.566 31.9545L106.486 30.75C106.691 31.0833 106.963 31.4356 107.304 31.8068C107.653 32.1856 108.122 32.5076 108.713 32.7727C109.312 33.0379 110.081 33.1705 111.02 33.1705C112.308 33.1705 113.372 32.8561 114.213 32.2273C115.054 31.6061 115.475 30.6136 115.475 29.25V25.8182H115.259C115.054 26.1894 114.759 26.6023 114.372 27.0568C113.994 27.5114 113.471 27.9053 112.804 28.2386C112.138 28.572 111.27 28.7386 110.202 28.7386C108.823 28.7386 107.581 28.4167 106.475 27.7727C105.376 27.1212 104.505 26.1629 103.861 24.8977C103.225 23.625 102.906 22.0606 102.906 20.2045C102.906 18.3485 103.221 16.7576 103.85 15.4318C104.486 14.1061 105.357 13.0909 106.463 12.3864C107.569 11.6742 108.823 11.3182 110.225 11.3182C111.308 11.3182 112.183 11.5 112.85 11.8636C113.516 12.2197 114.035 12.6364 114.406 13.1136C114.785 13.5909 115.077 14.0114 115.281 14.375H115.531V11.5455H118.861V29.3864C118.861 30.8864 118.513 32.1174 117.816 33.0795C117.119 34.0417 116.175 34.7538 114.986 35.2159C113.804 35.678 112.471 35.9091 110.986 35.9091ZM110.952 25.9205C111.929 25.9205 112.755 25.6932 113.429 25.2386C114.111 24.7765 114.626 24.1174 114.975 23.2614C115.331 22.3977 115.509 21.3636 115.509 20.1591C115.509 18.9848 115.335 17.9508 114.986 17.0568C114.638 16.1629 114.126 15.4659 113.452 14.9659C112.778 14.4583 111.944 14.2045 110.952 14.2045C109.929 14.2045 109.077 14.4697 108.395 15C107.713 15.5227 107.198 16.2348 106.85 17.1364C106.509 18.0379 106.338 19.0455 106.338 20.1591C106.338 21.303 106.513 22.3068 106.861 23.1705C107.21 24.0341 107.725 24.7083 108.406 25.1932C109.096 25.678 109.944 25.9205 110.952 25.9205ZM128.177 29.3864C127.071 29.3864 126.071 29.1818 125.177 28.7727C124.283 28.3561 123.575 27.7538 123.052 26.9659C122.537 26.178 122.28 25.2121 122.28 24.0682C122.28 23.0833 122.469 22.2727 122.848 21.6364C123.227 21 123.738 20.4962 124.382 20.125C125.026 19.7538 125.746 19.4735 126.541 19.2841C127.336 19.0947 128.147 18.9508 128.973 18.8523C130.018 18.7311 130.867 18.6326 131.518 18.5568C132.17 18.4735 132.643 18.3409 132.939 18.1591C133.234 17.9773 133.382 17.6818 133.382 17.2727V17.1932C133.382 16.2008 133.102 15.4318 132.541 14.8864C131.988 14.3409 131.162 14.0682 130.064 14.0682C128.92 14.0682 128.018 14.322 127.359 14.8295C126.708 15.3295 126.257 15.8864 126.007 16.5L122.814 15.7727C123.193 14.7121 123.746 13.8561 124.473 13.2045C125.208 12.5455 126.052 12.0682 127.007 11.7727C127.961 11.4697 128.965 11.3182 130.018 11.3182C130.715 11.3182 131.454 11.4015 132.234 11.5682C133.022 11.7273 133.757 12.0227 134.439 12.4545C135.128 12.8864 135.693 13.5038 136.132 14.3068C136.571 15.1023 136.791 16.1364 136.791 17.4091V29H133.473V26.6136H133.336C133.117 27.053 132.787 27.4848 132.348 27.9091C131.908 28.3333 131.344 28.6856 130.655 28.9659C129.965 29.2462 129.14 29.3864 128.177 29.3864ZM128.916 26.6591C129.855 26.6591 130.658 26.4735 131.325 26.1023C131.999 25.7311 132.511 25.2462 132.859 24.6477C133.215 24.0417 133.393 23.3939 133.393 22.7045V20.4545C133.272 20.5758 133.037 20.6894 132.689 20.7955C132.348 20.8939 131.958 20.9811 131.518 21.0568C131.079 21.125 130.651 21.1894 130.234 21.25C129.818 21.303 129.469 21.3485 129.189 21.3864C128.53 21.4697 127.927 21.6098 127.382 21.8068C126.844 22.0038 126.412 22.2879 126.086 22.6591C125.768 23.0227 125.609 23.5076 125.609 24.1136C125.609 24.9545 125.92 25.5909 126.541 26.0227C127.162 26.447 127.954 26.6591 128.916 26.6591Z" fill="url(#paint0_linear_615_1675)"/>
<path d="M17 33C25.8366 33 33 25.8366 33 17C33 8.16344 25.8366 1 17 1C8.16344 1 1 8.16344 1 17C1 25.8366 8.16344 33 17 33Z" stroke="url(#paint1_linear_615_1675)" stroke-width="1.5" stroke-miterlimit="6" stroke-linecap="round" stroke-linejoin="round"/>
<path d="M17.0001 32.9999C22.3615 32.9999 26.7078 27.2851 26.7078 20.2355C26.7078 13.186 22.3615 7.47119 17.0001 7.47119C11.6387 7.47119 7.29248 13.186 7.29248 20.2355C7.29248 27.2851 11.6387 32.9999 17.0001 32.9999Z" stroke="url(#paint2_linear_615_1675)" stroke-width="1.5" stroke-miterlimit="6" stroke-linecap="round" stroke-linejoin="round"/>
<path d="M16.9999 32.9999C19.2543 32.9999 21.0819 28.6841 21.0819 23.3603C21.0819 18.0365 19.2543 13.7207 16.9999 13.7207C14.7455 13.7207 12.918 18.0365 12.918 23.3603C12.918 28.6841 14.7455 32.9999 16.9999 32.9999Z" stroke="url(#paint3_linear_615_1675)" stroke-width="1.5" stroke-miterlimit="6" stroke-linecap="round" stroke-linejoin="round"/>
<defs>
<linearGradient id="paint0_linear_615_1675" x1="43" y1="17.5" x2="141" y2="17.5" gradientUnits="userSpaceOnUse">
<stop/>
<stop offset="0.464036" stop-color="#BC0000"/>
<stop offset="1" stop-color="#01C909"/>
</linearGradient>
<linearGradient id="paint1_linear_615_1675" x1="17" y1="1" x2="17" y2="33" gradientUnits="userSpaceOnUse">
<stop/>
<stop offset="0.495" stop-color="#BC0000"/>
<stop offset="1" stop-color="#01C909"/>
</linearGradient>
<linearGradient id="paint2_linear_615_1675" x1="17.0001" y1="7.47119" x2="17.0001" y2="32.9999" gradientUnits="userSpaceOnUse">
<stop/>
<stop offset="0.495" stop-color="#BC0000"/>
<stop offset="1" stop-color="#01C909"/>
</linearGradient>
<linearGradient id="paint3_linear_615_1675" x1="16.9999" y1="13.7207" x2="16.9999" y2="32.9999" gradientUnits="userSpaceOnUse">
<stop/>
<stop offset="0.495" stop-color="#BC0000"/>
<stop offset="1" stop-color="#01C909"/>
</linearGradient>
</defs>
</svg>
