<svg width="98" height="66" viewBox="0 0 98 66" fill="none" xmlns="http://www.w3.org/2000/svg">
<path d="M2.55682 59V35.7273H11.0795C12.7311 35.7273 14.0985 36 15.1818 36.5455C16.2652 37.0833 17.0758 37.8144 17.6136 38.7386C18.1515 39.6553 18.4205 40.6894 18.4205 41.8409C18.4205 42.8106 18.2424 43.6288 17.8864 44.2955C17.5303 44.9545 17.053 45.4848 16.4545 45.8864C15.8636 46.2803 15.2121 46.5682 14.5 46.75V46.9773C15.2727 47.0152 16.0265 47.2652 16.7614 47.7273C17.5038 48.1818 18.1174 48.8295 18.6023 49.6705C19.0871 50.5114 19.3295 51.5341 19.3295 52.7386C19.3295 53.928 19.0492 54.9962 18.4886 55.9432C17.9356 56.8826 17.0795 57.6288 15.9205 58.1818C14.7614 58.7273 13.2803 59 11.4773 59H2.55682ZM6.06818 55.9886H11.1364C12.8182 55.9886 14.0227 55.6629 14.75 55.0114C15.4773 54.3598 15.8409 53.5455 15.8409 52.5682C15.8409 51.8333 15.6553 51.1591 15.2841 50.5455C14.9129 49.9318 14.3826 49.4432 13.6932 49.0795C13.0114 48.7159 12.2008 48.5341 11.2614 48.5341H6.06818V55.9886ZM6.06818 45.7955H10.7727C11.5606 45.7955 12.2689 45.6439 12.8977 45.3409C13.5341 45.0379 14.0379 44.6136 14.4091 44.0682C14.7879 43.5152 14.9773 42.8636 14.9773 42.1136C14.9773 41.1515 14.6402 40.3447 13.9659 39.6932C13.2917 39.0417 12.2576 38.7159 10.8636 38.7159H6.06818V45.7955ZM30.2539 59.3523C28.6175 59.3523 27.1895 58.9773 25.9698 58.2273C24.7501 57.4773 23.8031 56.428 23.1289 55.0795C22.4546 53.7311 22.1175 52.1553 22.1175 50.3523C22.1175 48.5417 22.4546 46.9583 23.1289 45.6023C23.8031 44.2462 24.7501 43.1932 25.9698 42.4432C27.1895 41.6932 28.6175 41.3182 30.2539 41.3182C31.8902 41.3182 33.3183 41.6932 34.538 42.4432C35.7577 43.1932 36.7046 44.2462 37.3789 45.6023C38.0531 46.9583 38.3902 48.5417 38.3902 50.3523C38.3902 52.1553 38.0531 53.7311 37.3789 55.0795C36.7046 56.428 35.7577 57.4773 34.538 58.2273C33.3183 58.9773 31.8902 59.3523 30.2539 59.3523ZM30.2652 56.5C31.3258 56.5 32.2046 56.2197 32.9016 55.6591C33.5986 55.0985 34.1137 54.3523 34.447 53.4205C34.788 52.4886 34.9584 51.4621 34.9584 50.3409C34.9584 49.2273 34.788 48.2045 34.447 47.2727C34.1137 46.3333 33.5986 45.5795 32.9016 45.0114C32.2046 44.4432 31.3258 44.1591 30.2652 44.1591C29.197 44.1591 28.3107 44.4432 27.6061 45.0114C26.9092 45.5795 26.3902 46.3333 26.0493 47.2727C25.716 48.2045 25.5493 49.2273 25.5493 50.3409C25.5493 51.4621 25.716 52.4886 26.0493 53.4205C26.3902 54.3523 26.9092 55.0985 27.6061 55.6591C28.3107 56.2197 29.197 56.5 30.2652 56.5ZM45.2606 48.6364V59H41.8628V41.5455H45.1242V44.3864H45.3401C45.7416 43.4621 46.3704 42.7197 47.2265 42.1591C48.0901 41.5985 49.1772 41.3182 50.4878 41.3182C51.6772 41.3182 52.7189 41.5682 53.6128 42.0682C54.5068 42.5606 55.2 43.2955 55.6924 44.2727C56.1848 45.25 56.431 46.4583 56.431 47.8977V59H53.0333V48.3068C53.0333 47.0417 52.7038 46.053 52.0447 45.3409C51.3856 44.6212 50.4803 44.2614 49.3288 44.2614C48.5409 44.2614 47.8401 44.4318 47.2265 44.7727C46.6204 45.1136 46.1394 45.6136 45.7833 46.2727C45.4348 46.9242 45.2606 47.7121 45.2606 48.6364ZM67.986 65.9091C66.5997 65.9091 65.4065 65.7273 64.4065 65.3636C63.4141 65 62.6034 64.5189 61.9747 63.9205C61.3459 63.322 60.8762 62.6667 60.5656 61.9545L63.486 60.75C63.6906 61.0833 63.9633 61.4356 64.3042 61.8068C64.6527 62.1856 65.1224 62.5076 65.7133 62.7727C66.3118 63.0379 67.0807 63.1705 68.0201 63.1705C69.308 63.1705 70.3724 62.8561 71.2133 62.2273C72.0542 61.6061 72.4747 60.6136 72.4747 59.25V55.8182H72.2588C72.0542 56.1894 71.7588 56.6023 71.3724 57.0568C70.9936 57.5114 70.4709 57.9053 69.8042 58.2386C69.1375 58.572 68.2701 58.7386 67.2019 58.7386C65.8231 58.7386 64.5807 58.4167 63.4747 57.7727C62.3762 57.1212 61.505 56.1629 60.861 54.8977C60.2247 53.625 59.9065 52.0606 59.9065 50.2045C59.9065 48.3485 60.2209 46.7576 60.8497 45.4318C61.486 44.1061 62.3572 43.0909 63.4633 42.3864C64.5694 41.6742 65.8231 41.3182 67.2247 41.3182C68.308 41.3182 69.183 41.5 69.8497 41.8636C70.5163 42.2197 71.0353 42.6364 71.4065 43.1136C71.7853 43.5909 72.0769 44.0114 72.2815 44.375H72.5315V41.5455H75.861V59.3864C75.861 60.8864 75.5125 62.1174 74.8156 63.0795C74.1186 64.0417 73.1754 64.7538 71.986 65.2159C70.8042 65.678 69.4709 65.9091 67.986 65.9091ZM67.9519 55.9205C68.9292 55.9205 69.755 55.6932 70.4292 55.2386C71.111 54.7765 71.6262 54.1174 71.9747 53.2614C72.3307 52.3977 72.5088 51.3636 72.5088 50.1591C72.5088 48.9848 72.3345 47.9508 71.986 47.0568C71.6375 46.1629 71.1262 45.4659 70.4519 44.9659C69.7777 44.4583 68.9444 44.2045 67.9519 44.2045C66.9292 44.2045 66.0769 44.4697 65.3951 45C64.7133 45.5227 64.1981 46.2348 63.8497 47.1364C63.5088 48.0379 63.3383 49.0455 63.3383 50.1591C63.3383 51.303 63.5125 52.3068 63.861 53.1705C64.2095 54.0341 64.7247 54.7083 65.4065 55.1932C66.0959 55.678 66.9444 55.9205 67.9519 55.9205ZM85.1774 59.3864C84.0713 59.3864 83.0713 59.1818 82.1774 58.7727C81.2834 58.3561 80.5751 57.7538 80.0524 56.9659C79.5372 56.178 79.2797 55.2121 79.2797 54.0682C79.2797 53.0833 79.4691 52.2727 79.8478 51.6364C80.2266 51 80.738 50.4962 81.3819 50.125C82.0259 49.7538 82.7456 49.4735 83.541 49.2841C84.3365 49.0947 85.1471 48.9508 85.9728 48.8523C87.0183 48.7311 87.8668 48.6326 88.5183 48.5568C89.1698 48.4735 89.6433 48.3409 89.9388 48.1591C90.2342 47.9773 90.3819 47.6818 90.3819 47.2727V47.1932C90.3819 46.2008 90.1016 45.4318 89.541 44.8864C88.988 44.3409 88.1622 44.0682 87.0638 44.0682C85.9198 44.0682 85.0183 44.322 84.3592 44.8295C83.7077 45.3295 83.2569 45.8864 83.0069 46.5L79.8138 45.7727C80.1925 44.7121 80.7456 43.8561 81.4728 43.2045C82.2077 42.5455 83.0524 42.0682 84.0069 41.7727C84.9615 41.4697 85.9653 41.3182 87.0183 41.3182C87.7153 41.3182 88.4539 41.4015 89.2342 41.5682C90.0221 41.7273 90.7569 42.0227 91.4388 42.4545C92.1281 42.8864 92.6925 43.5038 93.1319 44.3068C93.5713 45.1023 93.791 46.1364 93.791 47.4091V59H90.4728V56.6136H90.3365C90.1168 57.053 89.7872 57.4848 89.3478 57.9091C88.9084 58.3333 88.3441 58.6856 87.6547 58.9659C86.9653 59.2462 86.1395 59.3864 85.1774 59.3864ZM85.916 56.6591C86.8554 56.6591 87.6584 56.4735 88.3251 56.1023C88.9994 55.7311 89.5107 55.2462 89.8592 54.6477C90.2153 54.0417 90.3933 53.3939 90.3933 52.7045V50.4545C90.2721 50.5758 90.0372 50.6894 89.6888 50.7955C89.3478 50.8939 88.9577 50.9811 88.5183 51.0568C88.0789 51.125 87.6509 51.1894 87.2342 51.25C86.8175 51.303 86.4691 51.3485 86.1888 51.3864C85.5297 51.4697 84.9274 51.6098 84.3819 51.8068C83.8441 52.0038 83.4122 52.2879 83.0865 52.6591C82.7683 53.0227 82.6092 53.5076 82.6092 54.1136C82.6092 54.9545 82.9198 55.5909 83.541 56.0227C84.1622 56.447 84.9539 56.6591 85.916 56.6591Z" fill="url(#paint0_linear_615_1682)"/>
<path d="M49 33C57.8366 33 65 25.8366 65 17C65 8.16344 57.8366 1 49 1C40.1634 1 33 8.16344 33 17C33 25.8366 40.1634 33 49 33Z" stroke="url(#paint1_linear_615_1682)" stroke-width="1.5" stroke-miterlimit="6" stroke-linecap="round" stroke-linejoin="round"/>
<path d="M49.0001 32.9999C54.3615 32.9999 58.7078 27.2851 58.7078 20.2355C58.7078 13.186 54.3615 7.47119 49.0001 7.47119C43.6387 7.47119 39.2925 13.186 39.2925 20.2355C39.2925 27.2851 43.6387 32.9999 49.0001 32.9999Z" stroke="url(#paint2_linear_615_1682)" stroke-width="1.5" stroke-miterlimit="6" stroke-linecap="round" stroke-linejoin="round"/>
<path d="M48.9999 32.9999C51.2543 32.9999 53.0819 28.6841 53.0819 23.3603C53.0819 18.0365 51.2543 13.7207 48.9999 13.7207C46.7455 13.7207 44.918 18.0365 44.918 23.3603C44.918 28.6841 46.7455 32.9999 48.9999 32.9999Z" stroke="url(#paint3_linear_615_1682)" stroke-width="1.5" stroke-miterlimit="6" stroke-linecap="round" stroke-linejoin="round"/>
<defs>
<linearGradient id="paint0_linear_615_1682" x1="0" y1="47.5" x2="98" y2="47.5" gradientUnits="userSpaceOnUse">
<stop/>
<stop offset="0.464036" stop-color="#BC0000"/>
<stop offset="1" stop-color="#01C909"/>
</linearGradient>
<linearGradient id="paint1_linear_615_1682" x1="49" y1="1" x2="49" y2="33" gradientUnits="userSpaceOnUse">
<stop/>
<stop offset="0.495" stop-color="#BC0000"/>
<stop offset="1" stop-color="#01C909"/>
</linearGradient>
<linearGradient id="paint2_linear_615_1682" x1="49.0001" y1="7.47119" x2="49.0001" y2="32.9999" gradientUnits="userSpaceOnUse">
<stop/>
<stop offset="0.495" stop-color="#BC0000"/>
<stop offset="1" stop-color="#01C909"/>
</linearGradient>
<linearGradient id="paint3_linear_615_1682" x1="48.9999" y1="13.7207" x2="48.9999" y2="32.9999" gradientUnits="userSpaceOnUse">
<stop/>
<stop offset="0.495" stop-color="#BC0000"/>
<stop offset="1" stop-color="#01C909"/>
</linearGradient>
</defs>
</svg>
